<svg version="1.1" xmlns="http://www.w3.org/2000/svg" viewBox="0 0 20.63671875 73.59375" width="20.63671875" height="73.59375">
  <!-- svg-source:excalidraw -->
  
  <defs>
    <style>
      @font-face {
        font-family: "Virgil";
        src: url("https://excalidraw.com/Virgil.woff2");
      }
      @font-face {
        font-family: "Cascadia";
        src: url("https://excalidraw.com/Cascadia.woff2");
      }
    </style>
  </defs>
  <g stroke-linecap="round"><g transform="translate(10 10) rotate(0 0.318359375 26.796875)"><path d="M0 0 C0.21 17.44, 0.41 34.88, 0.64 53.59" stroke="#919191" stroke-width="2.5" fill="none" stroke-dasharray="1.5 8"></path></g><g transform="translate(10 10) rotate(0 0.318359375 26.796875)"><path d="M0.64 53.59 L-5.86 40.08 L6.81 39.92 L0.64 53.59" stroke="none" stroke-width="0" fill="#919191" fill-rule="evenodd"></path><path d="M0.64 53.59 C-1.48 49.2, -3.59 44.8, -5.86 40.08 M-5.86 40.08 C-1.91 40.03, 2.05 39.98, 6.81 39.92 M6.81 39.92 C4.54 44.97, 2.26 50.01, 0.64 53.59 M0.64 53.59 C0.64 53.59, 0.64 53.59, 0.64 53.59" stroke="#919191" stroke-width="2.5" fill="none"></path></g></g></svg>