<svg width="755" height="167" viewBox="0 0 755 167" fill="none" xmlns="http://www.w3.org/2000/svg">
<path d="M520.438 19.8462C503.7 -0.0890501 470.638 -5.99802 446.736 6.67623L404.76 28.9425C401.937 30.4198 399.302 32.1374 396.905 34.0678C394.506 35.9983 392.355 38.1315 390.488 40.4325C388.62 42.7335 387.045 45.1897 385.785 47.7611C384.528 50.3337 383.594 53.0079 383 55.7408C382.504 58.0317 382.233 60.3553 382.197 62.6838C382.158 65.0148 382.353 67.3434 382.777 69.6444C383.201 71.9479 383.854 74.2188 384.726 76.4322C385.598 78.6455 386.69 80.7938 387.989 82.8569C387.095 83.9877 386.27 85.1551 385.517 86.3548C384.762 87.5541 384.082 88.7859 383.478 90.0429C382.874 91.2998 382.347 92.5817 381.899 93.8837C381.451 95.1857 381.084 96.5052 380.796 97.8372C379.596 103.439 379.754 109.183 381.262 114.733C382.013 117.5 383.093 120.199 384.488 122.788C385.884 125.377 387.583 127.845 389.568 130.154C406.306 150.089 439.365 155.998 463.267 143.324L505.243 121.15C508.066 119.67 510.695 117.95 513.092 116.017C515.488 114.086 517.638 111.953 519.506 109.653C521.374 107.354 522.949 104.898 524.209 102.327C525.469 99.7576 526.405 97.0835 527.003 94.3519C527.499 92.0609 527.767 89.7399 527.803 87.4114C527.839 85.0828 527.644 82.7543 527.217 80.4533C526.793 78.1523 526.14 75.8838 525.265 73.6705C524.39 71.4596 523.298 69.3114 521.999 67.2482C522.892 66.119 523.719 64.9497 524.474 63.7504C525.226 62.5511 525.909 61.3192 526.513 60.0623C527.117 58.8054 527.647 57.5235 528.098 56.2215C528.546 54.922 528.919 53.6025 529.211 52.2705C529.806 49.4762 530.065 46.6394 529.986 43.8026C529.908 40.9658 529.49 38.144 528.738 35.3748C527.987 32.6081 526.907 29.909 525.512 27.3201C524.118 24.7307 522.419 22.2632 520.438 19.9539" fill="#FF3E00"/>
<path d="M442.634 132.082C439.349 132.792 435.953 133.081 432.563 132.938C429.174 132.793 425.829 132.222 422.648 131.238C419.466 130.256 416.483 128.875 413.8 127.144C411.12 125.412 408.773 123.35 406.838 121.03C405.645 119.64 404.622 118.158 403.786 116.601C402.948 115.044 402.298 113.422 401.846 111.758C401.398 110.093 401.146 108.396 401.101 106.691C401.055 104.986 401.215 103.28 401.576 101.6C401.633 101.328 401.699 101.055 401.771 100.784C401.84 100.511 401.919 100.241 402.003 99.973C402.084 99.7026 402.174 99.4346 402.27 99.1667C402.364 98.9013 402.466 98.6359 402.571 98.373L403.362 96.3625L405.518 97.702C406.754 98.4532 408.029 99.1617 409.338 99.8227C410.646 100.486 411.987 101.102 413.358 101.668C414.727 102.236 416.128 102.757 417.55 103.225C418.973 103.696 420.419 104.114 421.887 104.482L423.496 104.87L423.351 106.21C423.274 107.122 423.388 108.038 423.688 108.917C423.836 109.357 424.031 109.783 424.269 110.193C424.506 110.604 424.786 110.997 425.105 111.368C425.689 112.067 426.398 112.687 427.207 113.208C428.013 113.729 428.912 114.144 429.871 114.44C430.831 114.735 431.835 114.906 432.857 114.948C433.877 114.993 434.899 114.906 435.889 114.69C436.117 114.64 436.34 114.583 436.562 114.518C436.785 114.452 437.004 114.382 437.218 114.302C437.434 114.225 437.645 114.139 437.856 114.047C438.063 113.957 438.264 113.859 438.463 113.754L480.375 91.4851C480.889 91.2169 481.368 90.9047 481.804 90.5537C482.24 90.2006 482.628 89.8125 482.968 89.3944C483.307 88.9763 483.59 88.5281 483.819 88.0599C484.044 87.5917 484.213 87.1059 484.321 86.6102C484.426 86.1019 484.471 85.5886 484.456 85.0728C484.441 84.5596 484.363 84.0488 484.225 83.5455C484.089 83.0447 483.891 82.5565 483.635 82.0858C483.383 81.6176 483.07 81.1719 482.709 80.7538C482.126 80.0552 481.419 79.4368 480.61 78.916C479.801 78.3952 478.902 77.9796 477.945 77.6841C476.987 77.3886 475.98 77.2164 474.959 77.1733C473.937 77.1308 472.914 77.2184 471.925 77.4312C471.699 77.4813 471.474 77.5389 471.251 77.604C471.029 77.6691 470.812 77.7392 470.596 77.8168C470.379 77.8969 470.169 77.9821 469.961 78.0747C469.754 78.1648 469.549 78.265 469.351 78.3702L453.256 86.8781C452.6 87.2236 451.927 87.5491 451.241 87.8546C450.552 88.1575 449.855 88.4404 449.142 88.7008C448.429 88.9612 447.704 89.1991 446.971 89.4119C446.237 89.6272 445.494 89.8175 444.742 89.9853C441.461 90.6914 438.072 90.9768 434.689 90.8316C431.306 90.6864 427.971 90.113 424.795 89.134C421.619 88.1525 418.642 86.7729 415.966 85.0453C413.289 83.3177 410.943 81.262 409.01 78.946C407.822 77.5564 406.802 76.0717 405.969 74.5143C405.133 72.9569 404.487 71.3345 404.039 69.6719C403.591 68.0069 403.344 66.3093 403.302 64.6042C403.257 62.9017 403.416 61.1966 403.78 59.519C404.491 56.2161 406.021 53.0729 408.273 50.29C410.526 47.5071 413.453 45.1465 416.865 43.3595L458.906 21.0932C459.559 20.7476 460.227 20.4221 460.909 20.1167C461.592 19.8137 462.29 19.5308 462.996 19.2704C463.705 19.0099 464.425 18.7727 465.156 18.5593C465.883 18.344 466.623 18.1512 467.372 17.9834C470.656 17.2749 474.051 16.9844 477.437 17.1271C480.826 17.2724 484.168 17.8432 487.349 18.8272C490.531 19.8087 493.511 21.1908 496.194 22.9209C498.873 24.6539 501.219 26.7165 503.152 29.0377C504.343 30.4248 505.369 31.9071 506.208 33.4644C507.047 35.0218 507.696 36.6418 508.151 38.3068C508.602 39.9718 508.854 41.6694 508.899 43.3745C508.947 45.0796 508.791 46.7847 508.43 48.4647C508.367 48.7401 508.301 49.0156 508.226 49.2885C508.154 49.5614 508.075 49.8343 507.991 50.1047C507.91 50.3776 507.82 50.648 507.727 50.916C507.633 51.1864 507.537 51.4543 507.432 51.7197L506.629 53.7302L504.488 52.3907C503.249 51.632 501.971 50.921 500.659 50.2524C499.348 49.5864 498.001 48.9655 496.627 48.3921C493.875 47.2494 491.013 46.3013 488.071 45.5578L486.459 45.1697L486.606 43.8302C486.652 43.372 486.649 42.9113 486.597 42.4556C486.549 41.9999 486.45 41.5467 486.306 41.1035C486.158 40.6629 485.969 40.2297 485.731 39.8166C485.497 39.401 485.217 39.0054 484.898 38.6298C484.312 37.9436 483.603 37.3357 482.796 36.8271C481.991 36.3161 481.096 35.9108 480.144 35.6252C478.23 35.047 476.149 34.9693 474.18 35.4024C473.952 35.4525 473.726 35.5101 473.507 35.5726C473.284 35.6377 473.065 35.7104 472.848 35.788C472.635 35.8656 472.421 35.9532 472.214 36.0434C472.006 36.136 471.802 36.2337 471.603 36.3388L429.613 58.5676C429.101 58.8355 428.623 59.1485 428.19 59.499C427.757 59.8495 427.366 60.2376 427.026 60.6532C426.689 61.0713 426.404 61.5168 426.175 61.9828C425.947 62.451 425.778 62.9342 425.67 63.43C425.565 63.9382 425.52 64.454 425.535 64.9698C425.571 66.0022 425.85 67.0188 426.356 67.9618C426.611 68.4313 426.92 68.8791 427.279 69.2989C427.859 69.9899 428.563 70.6059 429.366 71.1216C430.167 71.6399 431.059 72.0535 432.009 72.3485C433.921 72.9403 436.004 73.0354 437.982 72.6214C438.207 72.5688 438.433 72.5113 438.655 72.4462C438.875 72.3811 439.095 72.3084 439.311 72.2308C439.527 72.1528 439.738 72.0676 439.946 71.9754C440.153 71.8853 440.358 71.7877 440.556 71.6825L456.651 63.1896C457.31 62.8391 457.98 62.5086 458.669 62.2031C459.355 61.8951 460.055 61.6122 460.771 61.3493C461.484 61.0888 462.21 60.8516 462.945 60.6382C463.682 60.4229 464.428 60.2326 465.183 60.0674C468.467 59.3563 471.859 59.0658 475.248 59.206C478.637 59.3488 481.978 59.9196 485.16 60.9011C488.339 61.8826 491.322 63.2622 494.001 64.9948C496.684 66.725 499.029 68.7856 500.963 71.1066C502.154 72.4962 503.177 73.9785 504.016 75.5359C504.855 77.0923 505.505 78.7144 505.958 80.3782C506.409 82.0407 506.662 83.7383 506.71 85.4434C506.758 87.151 506.599 88.8561 506.241 90.5336C505.886 92.1807 505.327 93.7927 504.572 95.3434C503.817 96.8946 502.87 98.3758 501.745 99.7626C500.623 101.15 499.33 102.437 497.887 103.601C496.443 104.765 494.858 105.802 493.156 106.693L451.163 128.959C450.504 129.308 449.83 129.636 449.145 129.941C448.456 130.246 447.755 130.529 447.04 130.79C446.327 131.053 445.602 131.291 444.865 131.506C444.132 131.721 443.386 131.914 442.634 132.082" fill="white"/>
<path d="M605 24.8619L679.004 0L755 24.4198L742.695 116.74L679.004 150L616.309 117.182L605 24.8619Z" fill="#E23237"/>
<path d="M755 24.4198L679.004 0V150L742.695 116.796L755 24.4198V24.4198Z" fill="#B52E31"/>
<path d="M679.121 17.514L633.008 114.254L650.234 113.978L659.492 92.1546H700.859L710.996 114.254L727.46 114.531L679.121 17.514ZM679.238 48.5086L694.824 79.2264H665.527L679.238 48.5086Z" fill="white"/>
<path d="M340 75.0172C340 63.859 327.556 53.2845 308.477 46.7269C312.88 24.8913 310.923 7.51888 302.301 1.95697C300.314 0.652322 297.99 0.0343323 295.452 0.0343323V7.69055C296.859 7.69055 297.99 7.99954 298.938 8.5832C303.096 11.2612 304.9 21.458 303.494 34.5731C303.157 37.8004 302.607 41.1994 301.934 44.667C295.942 43.019 289.399 41.7487 282.519 40.9247C278.392 34.5731 274.111 28.8052 269.8 23.7583C279.768 13.3555 289.124 7.65621 295.483 7.65621V0C287.075 0 276.068 6.72923 264.939 18.4024C253.81 6.7979 242.803 0.137332 234.395 0.137332V7.79354C240.724 7.79354 250.11 13.4585 260.077 23.7926C255.797 28.8396 251.517 34.5731 247.45 40.9247C240.54 41.7487 233.997 43.019 228.004 44.7013C227.301 41.268 226.781 37.9377 226.415 34.7448C224.978 21.6297 226.751 11.4328 230.879 8.72053C231.796 8.10254 232.988 7.82788 234.395 7.82788V0.171664C231.826 0.171664 229.503 0.789654 227.485 2.0943C218.893 7.65621 216.967 24.9943 221.4 46.7613C202.383 53.3532 190 63.8933 190 75.0172C190 86.1753 202.444 96.7498 221.523 103.307C217.12 125.143 219.077 142.515 227.699 148.077C229.686 149.382 232.01 150 234.578 150C242.986 150 253.993 143.271 265.122 131.598C276.252 143.202 287.258 149.863 295.667 149.863C298.235 149.863 300.559 149.245 302.576 147.94C311.168 142.378 313.094 125.04 308.661 103.273C327.617 96.7155 340 86.141 340 75.0172V75.0172ZM300.192 52.1172C299.06 56.5461 297.654 61.1124 296.064 65.6786C294.81 62.932 293.496 60.1854 292.059 57.4388C290.652 54.6921 289.154 52.0142 287.656 49.4049C291.998 50.1259 296.186 51.0185 300.192 52.1172ZM286.188 88.6816C283.804 93.3165 281.358 97.7111 278.82 101.797C274.264 102.243 269.647 102.483 265 102.483C260.383 102.483 255.766 102.243 251.241 101.831C248.704 97.7455 246.227 93.3852 243.842 88.7846C241.519 84.287 239.409 79.7208 237.483 75.1202C239.378 70.5196 241.519 65.919 243.812 61.4214C246.197 56.7864 248.642 52.3918 251.18 48.3062C255.736 47.8599 260.353 47.6196 265 47.6196C269.617 47.6196 274.234 47.8599 278.759 48.2719C281.296 52.3575 283.773 56.7178 286.158 61.3184C288.481 65.816 290.591 70.3822 292.517 74.9828C290.591 79.5834 288.481 84.184 286.188 88.6816ZM296.064 84.2183C297.715 88.8189 299.121 93.4195 300.283 97.8828C296.278 98.9815 292.059 99.9084 287.687 100.629C289.185 97.9858 290.683 95.2735 292.089 92.4926C293.496 89.7459 294.81 86.965 296.064 84.2183ZM265.061 120.851C262.218 117.555 259.374 113.882 256.561 109.865C259.313 110.002 262.126 110.105 264.969 110.105C267.843 110.105 270.687 110.037 273.469 109.865C270.717 113.882 267.874 117.555 265.061 120.851ZM242.313 100.629C237.972 99.9084 233.783 99.0158 229.778 97.9171C230.909 93.4882 232.316 88.9219 233.905 84.3557C235.159 87.1023 236.474 89.8489 237.911 92.5956C239.348 95.3422 240.815 98.0201 242.313 100.629ZM264.908 29.1829C267.752 32.4788 270.595 36.1524 273.408 40.1694C270.656 40.032 267.843 39.929 265 39.929C262.126 39.929 259.283 39.9977 256.5 40.1694C259.252 36.1524 262.095 32.4788 264.908 29.1829ZM242.283 49.4049C240.785 52.0485 239.287 54.7608 237.88 57.5418C236.474 60.2884 235.159 63.035 233.905 65.7816C232.254 61.181 230.848 56.5805 229.686 52.1172C233.691 51.0529 237.911 50.1259 242.283 49.4049V49.4049ZM214.613 92.3896C203.789 87.2053 196.788 80.4074 196.788 75.0172C196.788 69.6269 203.789 62.7947 214.613 57.6448C217.242 56.3745 220.116 55.2415 223.082 54.1772C224.825 60.9064 227.118 67.9103 229.961 75.0858C227.148 82.2271 224.886 89.1966 223.174 95.8915C220.147 94.8272 217.273 93.6599 214.613 92.3896ZM231.062 141.451C226.904 138.773 225.1 128.576 226.506 115.461C226.843 112.234 227.393 108.835 228.066 105.367C234.058 107.015 240.601 108.286 247.481 109.11C251.608 115.461 255.889 121.229 260.2 126.276C250.232 136.679 240.876 142.378 234.517 142.378C233.141 142.344 231.979 142.035 231.062 141.451V141.451ZM303.585 115.29C305.022 128.405 303.249 138.602 299.121 141.314C298.204 141.932 297.012 142.206 295.605 142.206C289.276 142.206 279.89 136.542 269.923 126.207C274.203 121.16 278.483 115.427 282.55 109.075C289.46 108.251 296.003 106.981 301.996 105.299C302.699 108.766 303.249 112.097 303.585 115.29V115.29ZM315.357 92.3896C312.727 93.6599 309.853 94.7929 306.887 95.8572C305.145 89.1279 302.852 82.124 300.008 74.9485C302.821 67.8073 305.084 60.8377 306.796 54.1428C309.823 55.2071 312.697 56.3745 315.387 57.6448C326.211 62.829 333.212 69.6269 333.212 75.0172C333.182 80.4074 326.18 87.2396 315.357 92.3896V92.3896Z" fill="#61DAFB"/>
<path d="M264.969 90.7073C272.686 90.7073 278.942 83.6826 278.942 75.0172C278.942 66.3518 272.686 59.3271 264.969 59.3271C257.252 59.3271 250.997 66.3518 250.997 75.0172C250.997 83.6826 257.252 90.7073 264.969 90.7073Z" fill="#61DAFB"/>
<path d="M92.3204 17L75 51.6406L57.6795 17H0L75 167L150 17H92.3204Z" fill="#41B883"/>
<path d="M92.3204 17L75 51.6406L57.6796 17H30L75 106.998L120 17H92.3204Z" fill="#34495E"/>
</svg>
