<svg version="1.1" xmlns="http://www.w3.org/2000/svg" viewBox="0 0 547.0703125 393.2294921875" width="547.0703125" height="393.2294921875">
  <!-- svg-source:excalidraw -->
  
  <defs>
    <style>
      @font-face {
        font-family: "Virgil";
        src: url("https://excalidraw.com/Virgil.woff2");
      }
      @font-face {
        font-family: "Cascadia";
        src: url("https://excalidraw.com/Cascadia.woff2");
      }
    </style>
  </defs>
  <g stroke-linecap="round"><g transform="translate(240.37247830885462 166.6923828125) rotate(0 0.9406373487956898 24.903483591726996)"><path d="M0.64 0.41 C1.05 8.96, 2.18 42.1, 2.37 50.23 M-0.48 -0.42 C-0.26 7.85, 0.43 39.87, 1.21 48.29" stroke="#6356ff" stroke-width="1" fill="none"></path></g><g transform="translate(240.37247830885462 166.6923828125) rotate(0 0.9406373487956898 24.903483591726996)"><path d="M-7.86 24.64 C-5.3 30.31, -4.24 38.04, 1.48 48.25 M-8.59 25.82 C-5.63 30.46, -2.93 37.63, 1.72 48.09" stroke="#6356ff" stroke-width="1" fill="none"></path></g><g transform="translate(240.37247830885462 166.6923828125) rotate(0 0.9406373487956898 24.903483591726996)"><path d="M9.19 23.74 C6.77 29.77, 2.85 37.76, 1.48 48.25 M8.46 24.93 C6.96 29.85, 5.2 37.25, 1.72 48.09" stroke="#6356ff" stroke-width="1" fill="none"></path></g></g><g stroke-linecap="round"><g transform="translate(251.0152886187243 276.12988281250006) rotate(0 -0.3721769670330559 22.707063263817645)"><path d="M1.02 -0.12 C0.61 7.65, -1.29 38.97, -1.77 46.64 M0.1 -1.22 C-0.02 6.22, 0.35 37.6, 0.41 45.1" stroke="#6356ff" stroke-width="1" fill="none"></path></g><g transform="translate(251.0152886187243 276.12988281250006) rotate(0 -0.3721769670330559 22.707063263817645)"><path d="M-7.77 22.08 C-2.83 29.53, -1.18 38.74, -0.09 47.02 M-7.9 23.85 C-4.91 31.18, -2.21 41.01, 1.35 45.78" stroke="#6356ff" stroke-width="1" fill="none"></path></g><g transform="translate(251.0152886187243 276.12988281250006) rotate(0 -0.3721769670330559 22.707063263817645)"><path d="M7.8 21.93 C7.12 29.56, 3.16 38.83, -0.09 47.02 M7.67 23.7 C4.68 31.16, 1.39 41.04, 1.35 45.78" stroke="#6356ff" stroke-width="1" fill="none"></path></g></g><g transform="translate(214.671875 25.8115234375) rotate(0 41.5 12)"><text x="0" y="19" font-family="Cascadia, Segoe UI Emoji" font-size="20px" fill="#919191" text-anchor="start" style="white-space: pre;" direction="ltr">#635bff</text></g><g stroke-linecap="round" transform="translate(174.4453125 26.0732421875) rotate(0 12.697265625 13.08203125)"><path d="M-1.84 -0.37 L26.61 -1.92 L24.61 24.91 L-1.85 25.08" stroke="none" stroke-width="0" fill="#635bff"></path><path d="M-0.23 1.68 C6.35 -0.35, 13.61 2.06, 25.31 0.51 M-0.81 0.14 C7.06 0.69, 14.74 -0.23, 25.19 0.08 M24.78 0.87 C23.94 6.74, 24.81 12.46, 25.96 27.93 M25.92 -0.94 C24.33 5.38, 24.53 10.6, 25.67 26.46 M26.95 24.7 C17.37 27.15, 15.1 25.52, 1.74 26.55 M25.85 25.55 C14.63 25.92, 5.11 25.91, -0.87 25.28 M-0.33 24.46 C0.77 20.32, -0.61 12.98, 1.72 0.5 M-0.84 25.75 C0.56 21, 0.16 14.16, 0.65 -0.8" stroke="#635bff" stroke-width="1" fill="none"></path></g><g stroke-linecap="round" transform="translate(166.14453125 108.7998046875) rotate(0 74.5 28)"><path d="M-1.15 0.12 C50.03 -0.11, 99.18 2.8, 147.44 -0.62 M0.4 -0.51 C51.75 0.8, 104.6 1.3, 148.85 -0.19 M147.7 -0.74 C148.77 16.26, 149.26 31.17, 148.3 54.45 M149.85 0.95 C149.55 18.06, 148.04 33.72, 148.28 55.74 M147.56 55.95 C114.69 56.06, 82.82 55.14, 1.36 57.84 M149.96 56.49 C94.85 55.47, 41.45 53.68, 0 56.25 M-0.59 56.53 C0.43 43.42, 0.49 30.98, 1.81 0.27 M-0.4 55.95 C0.18 38.02, 0.04 19.83, -0.82 -0.44" stroke="#919191" stroke-width="1" fill="none"></path></g><g transform="translate(171.14453125 124.7998046875) rotate(0 69.5 12)"><text x="139" y="19" font-family="Cascadia, Segoe UI Emoji" font-size="20px" fill="#919191" text-anchor="end" style="white-space: pre;" direction="ltr">blue-500</text></g><g stroke-linecap="round" transform="translate(182.576171875 124.1240234375) rotate(0 12.697265625 13.08203125)"><path d="M0.53 1.79 L25.29 -1.96 L25.11 28.04 L1.02 25.12" stroke="none" stroke-width="0" fill="#635bff"></path><path d="M-1.91 -1.79 C3.72 -0.3, 9.81 -0.77, 24.65 -1.04 M0.23 -0.21 C8.39 0.24, 15.54 0.96, 25.19 0.94 M24.29 -0.94 C26.56 9.52, 24.83 19.61, 26.02 26.68 M25.89 -0.27 C26.02 10.82, 25.63 20.56, 25.11 25.28 M25.06 25.6 C21.49 28.21, 12.47 26.06, -0.47 27.92 M26.12 25.93 C16.26 27.11, 5.19 26.8, -0.62 25.31 M-1.3 26.07 C-1.83 21.12, -1.77 13.53, 1.94 0.99 M-0.06 25.76 C-1.08 15.21, -0.77 6.32, 0.55 0.28" stroke="#635bff" stroke-width="1" fill="none"></path></g><g stroke-linecap="round"><g transform="translate(244.49341124235525 65.3935546875) rotate(0 -0.06996497081513553 16.106847315011535)"><path d="M1.07 -0.51 C1.04 4.96, -0.08 27.03, -0.13 32.7 M0.18 -1.82 C-0.03 3.84, -1.23 28.51, -1.21 34.04" stroke="#6356ff" stroke-width="1" fill="none"></path></g><g transform="translate(244.49341124235525 65.3935546875) rotate(0 -0.06996497081513553 16.106847315011535)"><path d="M-7.14 17.99 C-5.4 23.91, -2.74 26.44, -1.95 35.25 M-7.25 18.57 C-4.59 24.2, -3.04 29.2, -0.62 33.94" stroke="#6356ff" stroke-width="1" fill="none"></path></g><g transform="translate(244.49341124235525 65.3935546875) rotate(0 -0.06996497081513553 16.106847315011535)"><path d="M4.17 18.31 C2.48 24.23, 1.7 26.67, -1.95 35.25 M4.06 18.88 C2.58 24.35, 0.01 29.23, -0.62 33.94" stroke="#6356ff" stroke-width="1" fill="none"></path></g></g><g stroke-linecap="round" transform="translate(96.732421875 232.9443359375) rotate(0 12.697265625 13.08203125)"><path d="M-0.53 0.75 L26.1 1.8 L24.78 27.3 L-1.59 26.24" stroke="none" stroke-width="0" fill="#635bff"></path><path d="M-0.19 -1.23 C8 0.85, 12.12 -0.49, 24.24 0.75 M0.47 0.59 C5.76 0.44, 11.94 0.52, 26.29 0.16 M27.18 -0.77 C26.8 9.48, 23.73 15.22, 24.54 24.87 M24.96 -0.14 C24.6 8.04, 25.69 15.2, 24.54 26.18 M25.2 25.97 C18.22 25.62, 8.7 26.55, 0.28 27.38 M25.05 26.15 C17.48 27.06, 11.38 26.22, -0.19 25.25 M-1.36 24.26 C1.36 18.85, -0.53 8.22, 1.69 0.62 M-0.23 27.06 C-0.87 15.74, -0.61 5.11, -0.83 0.38" stroke="#635bff" stroke-width="1" fill="none"></path></g><g transform="translate(136.48828125 233.8232421875) rotate(0 147 12)"><text x="0" y="19" font-family="Cascadia, Segoe UI Emoji" font-size="20px" fill="#919191" text-anchor="start" style="white-space: pre;" direction="ltr">interaction-color-defalut</text></g><g stroke-linecap="round" transform="translate(81.328125 217.8486328125) rotate(0 177.76953125 28)"><path d="M0.66 -0.74 C110.1 -0.68, 219.91 0.58, 355.89 0.71 M-0.04 -0.21 C72.46 1.87, 145.96 0.74, 356.06 0.08 M356.42 0.57 C354.21 17.52, 355.56 34.9, 356.11 56.09 M354.83 0.91 C356.07 19.65, 355.96 38.91, 356.4 55.55 M356.64 55.84 C274.56 55.76, 190.9 54.82, -0.59 55.58 M355.92 56.59 C249.32 55.23, 144.58 54.8, -0.41 56.11 M1.4 55.21 C1.67 42.87, -0.57 29.05, -0.07 0.3 M0.81 55.75 C-0.06 35.74, 0.02 13.67, 0.75 -0.73" stroke="#919191" stroke-width="1" fill="none"></path></g><g stroke-linecap="round" transform="translate(25.896484375 342.3251953125) rotate(0 12.697265625 13.08203125)"><path d="M0.39 1.3 L26.22 1.25 L26.57 27.75 L1.87 25.89" stroke="none" stroke-width="0" fill="#635bff"></path><path d="M-1.6 -1.61 C6.41 1.18, 11.26 1.26, 24.23 -1.35 M-0.42 -0.22 C4.51 0.2, 9.73 -0.07, 25.87 -0.8 M27.03 1.73 C27.44 5.02, 24.59 14.56, 25.12 26.17 M25.52 -0.23 C26.19 8.93, 26.26 18.37, 25.05 26.75 M25.8 26.17 C16.53 27.82, 9.77 27.99, 0.16 27.84 M25.78 26.36 C20.49 27.02, 13.35 25.39, 0.08 25.77 M0.9 26.73 C-1.13 16.3, -1.46 5.01, 0.21 -1.52 M0.91 27.08 C-0.95 20.06, 0.08 14.87, -0.13 0.83" stroke="#635bff" stroke-width="1" fill="none"></path></g><g stroke-linecap="round" transform="translate(10 327.2294921875) rotate(0 263.53515625 28)"><path d="M0.06 0.38 C108.16 2.1, 216.87 1.16, 526.28 0.57 M-0.24 0.08 C156.73 0.44, 314.06 0.15, 526.92 0.17 M529 -1.83 C526.6 18.73, 527.26 35.76, 528.2 55.63 M527.91 -0.39 C528.05 17.49, 526.8 36.11, 527.24 55.69 M526.75 56.59 C332.13 56.67, 136.86 56.68, -0.65 55.49 M527.34 56.3 C344.29 56.05, 162.27 56.25, 0.38 56.19 M-1.01 56.46 C-1.59 42.76, -0.05 29.03, -1.99 0.54 M-0.88 55.14 C-0.36 33.4, -0.63 13.26, 0.2 0.65" stroke="#919191" stroke-width="1" fill="none"></path></g><g transform="translate(65.44140625 340.6552734375) rotate(0 235 12)"><text x="0" y="19" font-family="Cascadia, Segoe UI Emoji" font-size="20px" fill="#919191" text-anchor="start" style="white-space: pre;" direction="ltr">color-background-button-primary-selected</text></g><g stroke-linecap="round" transform="translate(162.123046875 10) rotate(0 73.052734375 27.376953125)"><path d="M1.9 -0.98 C35.34 0.14, 71.29 -2.25, 147.71 -1.48 M0.15 0.6 C45.74 -1.8, 93.06 -0.88, 146.35 0.24 M147.2 -1.02 C147.7 20.78, 147.85 42.48, 146.37 54.11 M145.63 0.3 C147.19 13.43, 147.43 27.54, 145.37 55.37 M145.2 53.91 C105.93 56.5, 62.44 54.19, 1.77 54.82 M146.99 53.84 C95 55.08, 45.08 54.67, -0.93 54.27 M1.37 53.89 C1.49 39.52, -0.8 26.08, 1.32 -0.88 M0.48 55.3 C0.14 35.46, -0.05 15.41, -0.5 -0.37" stroke="#919191" stroke-width="1" fill="none"></path></g></svg>