<svg width="966" height="965" viewBox="0 0 966 965" fill="none" xmlns="http://www.w3.org/2000/svg">
<rect x="2" y="765" width="200" height="200" rx="20" fill="#006841"/>
<rect x="2" y="765" width="200" height="200" rx="20" stroke="white"/>
<rect x="584" y="491.85" width="200" height="200" rx="20" transform="rotate(-41.2428 584 491.85)" fill="url(#paint0_linear_3_6)"/>
<rect x="584" y="491.85" width="200" height="200" rx="20" transform="rotate(-41.2428 584 491.85)" stroke="white"/>
<rect x="359" y="270.135" width="200" height="200" rx="20" transform="rotate(-58.2851 359 270.135)" fill="url(#paint1_linear_3_6)"/>
<rect x="359" y="270.135" width="200" height="200" rx="20" transform="rotate(-58.2851 359 270.135)" stroke="white"/>
<rect x="264" y="527" width="200" height="200" rx="20" fill="#006841"/>
<rect x="264" y="527" width="200" height="200" rx="20" stroke="white"/>
<rect x="2" y="275" width="200" height="200" rx="20" fill="#006841"/>
<rect x="2" y="275" width="200" height="200" rx="20" stroke="white"/>
<g filter="url(#filter0_d_3_6)">
<rect x="766" width="200" height="200" rx="17" fill="url(#paint2_radial_3_6)" fill-opacity="0.85" shape-rendering="crispEdges"/>
</g>
<rect x="1" y="526" width="202" height="202" rx="21" fill="#006841" stroke="white" stroke-width="2"/>
<rect x="525" y="765" width="200" height="200" rx="20" fill="#006841"/>
<rect x="525" y="765" width="200" height="200" rx="20" stroke="white"/>
<rect x="264" y="765" width="200" height="200" rx="20" fill="#006841"/>
<rect x="264" y="765" width="200" height="200" rx="20" stroke="white"/>
<defs>
<filter id="filter0_d_3_6" x="756" y="0" width="210" height="210" filterUnits="userSpaceOnUse" color-interpolation-filters="sRGB">
<feFlood flood-opacity="0" result="BackgroundImageFix"/>
<feColorMatrix in="SourceAlpha" type="matrix" values="0 0 0 0 0 0 0 0 0 0 0 0 0 0 0 0 0 0 127 0" result="hardAlpha"/>
<feOffset dx="-6" dy="6"/>
<feGaussianBlur stdDeviation="2"/>
<feComposite in2="hardAlpha" operator="out"/>
<feColorMatrix type="matrix" values="0 0 0 0 0 0 0 0 0 0 0 0 0 0 0 0 0 0 0.8 0"/>
<feBlend mode="normal" in2="BackgroundImageFix" result="effect1_dropShadow_3_6"/>
<feBlend mode="normal" in="SourceGraphic" in2="effect1_dropShadow_3_6" result="shape"/>
</filter>
<linearGradient id="paint0_linear_3_6" x1="576.748" y1="685.18" x2="1353.4" y2="215.731" gradientUnits="userSpaceOnUse">
<stop stop-color="#006841"/>
<stop offset="1" stop-color="#006841" stop-opacity="0"/>
</linearGradient>
<linearGradient id="paint1_linear_3_6" x1="363.631" y1="372.484" x2="796.001" y2="384.481" gradientUnits="userSpaceOnUse">
<stop stop-color="#006841"/>
<stop offset="0.884355" stop-color="#00713D" stop-opacity="0.21875"/>
<stop offset="1" stop-color="white" stop-opacity="0"/>
</linearGradient>
<radialGradient id="paint2_radial_3_6" cx="0" cy="0" r="1" gradientUnits="userSpaceOnUse" gradientTransform="translate(973 -8.00002) rotate(135) scale(288.5 387.301)">
<stop stop-color="#FAFAFA" stop-opacity="0"/>
<stop offset="0.229737" stop-color="#ADD0BF" stop-opacity="0.77"/>
<stop offset="0.54902" stop-color="#4DB836"/>
<stop offset="1" stop-color="#00733C"/>
</radialGradient>
</defs>
</svg>
