<svg width="698" height="150" viewBox="0 0 698 150" fill="none" xmlns="http://www.w3.org/2000/svg">
<path d="M75 150C116.421 150 150 116.421 150 75C150 33.5786 116.421 0 75 0C33.5786 0 0 33.5786 0 75C0 116.421 33.5786 150 75 150Z" fill="#0478DA"/>
<path d="M75.0141 23.4375C103.453 23.4844 126.572 46.6219 126.563 75.0141C126.553 103.439 103.416 126.562 74.9813 126.562H74.9344C46.5281 126.534 23.4234 103.373 23.4375 74.9344C23.4516 46.5469 46.5938 23.4375 75.0141 23.4375ZM75 30.0844C50.2641 30.0844 30.1313 50.2313 30.1219 74.9906C30.1172 99.7219 50.2219 119.859 74.9438 119.878C99.7078 119.878 119.873 99.7406 119.892 74.9906C119.91 69.0941 118.757 63.2527 116.5 57.8052C114.243 52.3577 110.926 47.4125 106.744 43.2562C102.588 39.071 97.6436 35.7517 92.1963 33.4907C86.749 31.2297 80.9073 30.0719 75.0094 30.0844H75ZM97.1625 70.3922C98.7516 78.45 96.7078 85.2188 90.9188 91.0969L90.1219 91.8984L89.1094 91.4016C88.5489 91.1274 87.9798 90.871 87.4031 90.6328L85.1109 89.6766L86.9578 88.0172C90.5625 84.7828 92.4797 80.5594 92.6625 75.4688C92.85 70.3781 91.0453 65.9391 87.3047 62.2781C84.026 59.0614 79.6119 57.2661 75.0188 57.2813C72.5083 57.2793 70.0264 57.8131 67.7388 58.847C65.4512 59.8809 63.4105 61.391 61.7531 63.2766C58.0125 67.5422 56.5828 72.7359 57.6281 78.2906C58.2743 81.9654 60.1088 85.3265 62.85 87.8578L64.6641 89.5406L62.3719 90.4641C61.8 90.6937 61.2 90.9422 60.5578 91.2141L59.5734 91.6266L58.8234 90.8625C54.9656 86.8875 52.875 82.3125 52.4391 76.875C51.5156 65.4141 58.9453 55.3172 70.1109 52.8703C71.758 52.5058 73.4397 52.3204 75.1266 52.3172C80.3213 52.3222 85.3541 54.1253 89.3702 57.4202C93.3863 60.715 96.1379 65.2986 97.1578 70.3922H97.1625ZM46.7484 99.8766C39.8297 92.1609 34.2188 78.4734 39.2344 63.2016C41.7129 55.6775 46.5015 49.1269 52.9188 44.4821C59.336 39.8373 67.0548 37.335 74.9766 37.3313C82.8312 37.3221 90.4919 39.771 96.8847 44.3347C103.278 48.8984 108.082 55.348 110.625 62.7797C115.059 75.7734 111.975 90.5484 102.773 100.42L101.602 101.672L97.3969 96.975L98.325 95.9297C104.081 89.4469 106.753 81.7594 106.27 73.0875C105.82 65.1656 102.67 58.2656 96.9047 52.5844C91.0828 46.8259 83.2167 43.6084 75.0281 43.6359C67.5066 43.6392 60.2361 46.3422 54.5391 51.2531C50.1249 55.0194 46.8611 59.9532 45.1219 65.4891C43.3548 70.9917 43.16 76.8785 44.5594 82.4859C45.7235 87.2877 48.0222 91.7403 51.2625 95.4703L52.1813 96.5344L47.8875 101.156L46.7484 99.8766Z" fill="white"/>
<path d="M178.886 104V34.1818H205.068C210.432 34.1818 214.932 35.1818 218.568 37.1818C222.227 39.1818 224.989 41.9318 226.852 45.4318C228.739 48.9091 229.682 52.8636 229.682 57.2955C229.682 61.7727 228.739 65.75 226.852 69.2273C224.966 72.7045 222.182 75.4432 218.5 77.4432C214.818 79.4205 210.284 80.4091 204.898 80.4091H187.545V70.0114H203.193C206.33 70.0114 208.898 69.4659 210.898 68.375C212.898 67.2841 214.375 65.7841 215.33 63.875C216.307 61.9659 216.795 59.7727 216.795 57.2955C216.795 54.8182 216.307 52.6364 215.33 50.75C214.375 48.8636 212.886 47.3977 210.864 46.3523C208.864 45.2841 206.284 44.75 203.125 44.75H191.534V104H178.886ZM262.554 105.023C257.304 105.023 252.77 103.932 248.952 101.75C245.156 99.5455 242.236 96.4318 240.19 92.4091C238.145 88.3636 237.122 83.6023 237.122 78.125C237.122 72.7386 238.145 68.0114 240.19 63.9432C242.259 59.8523 245.145 56.6705 248.849 54.3977C252.554 52.1023 256.906 50.9545 261.906 50.9545C265.134 50.9545 268.179 51.4773 271.043 52.5227C273.929 53.5455 276.474 55.1364 278.679 57.2955C280.906 59.4545 282.656 62.2045 283.929 65.5455C285.202 68.8636 285.838 72.8182 285.838 77.4091V81.1932H242.918V72.875H274.009C273.986 70.5114 273.474 68.4091 272.474 66.5682C271.474 64.7045 270.077 63.2386 268.281 62.1705C266.509 61.1023 264.44 60.5682 262.077 60.5682C259.554 60.5682 257.338 61.1818 255.429 62.4091C253.52 63.6136 252.031 65.2045 250.963 67.1818C249.918 69.1364 249.384 71.2841 249.361 73.625V80.8864C249.361 83.9318 249.918 86.5455 251.031 88.7273C252.145 90.8864 253.702 92.5455 255.702 93.7045C257.702 94.8409 260.043 95.4091 262.724 95.4091C264.52 95.4091 266.145 95.1591 267.599 94.6591C269.054 94.1364 270.315 93.375 271.384 92.375C272.452 91.375 273.259 90.1364 273.804 88.6591L285.327 89.9545C284.599 93 283.213 95.6591 281.168 97.9318C279.145 100.182 276.554 101.932 273.395 103.182C270.236 104.409 266.622 105.023 262.554 105.023ZM296.278 104V51.6364H308.244V60.3636H308.79C309.744 57.3409 311.381 55.0114 313.699 53.375C316.04 51.7159 318.71 50.8864 321.71 50.8864C322.392 50.8864 323.153 50.9205 323.994 50.9886C324.858 51.0341 325.574 51.1136 326.142 51.2273V62.5795C325.619 62.3977 324.79 62.2386 323.653 62.1023C322.54 61.9432 321.46 61.8636 320.415 61.8636C318.165 61.8636 316.142 62.3523 314.347 63.3295C312.574 64.2841 311.176 65.6136 310.153 67.3182C309.131 69.0227 308.619 70.9886 308.619 73.2159V104H296.278ZM363.676 51.6364V61.1818H332.722V51.6364H363.676ZM340.46 104V46.6932C340.46 43.1705 341.188 40.2386 342.642 37.8977C344.119 35.5568 346.097 33.8068 348.574 32.6477C351.051 31.4886 353.801 30.9091 356.824 30.9091C358.96 30.9091 360.858 31.0795 362.517 31.4205C364.176 31.7614 365.403 32.0682 366.199 32.3409L363.744 41.8864C363.222 41.7273 362.562 41.5682 361.767 41.4091C360.972 41.2273 360.085 41.1364 359.108 41.1364C356.812 41.1364 355.188 41.6932 354.233 42.8068C353.301 43.8977 352.835 45.4659 352.835 47.5114V104H340.46ZM394.213 105.023C389.099 105.023 384.668 103.898 380.918 101.648C377.168 99.3977 374.259 96.25 372.19 92.2045C370.145 88.1591 369.122 83.4318 369.122 78.0227C369.122 72.6136 370.145 67.875 372.19 63.8068C374.259 59.7386 377.168 56.5795 380.918 54.3295C384.668 52.0795 389.099 50.9545 394.213 50.9545C399.327 50.9545 403.759 52.0795 407.509 54.3295C411.259 56.5795 414.156 59.7386 416.202 63.8068C418.27 67.875 419.304 72.6136 419.304 78.0227C419.304 83.4318 418.27 88.1591 416.202 92.2045C414.156 96.25 411.259 99.3977 407.509 101.648C403.759 103.898 399.327 105.023 394.213 105.023ZM394.281 95.1364C397.054 95.1364 399.372 94.375 401.236 92.8523C403.099 91.3068 404.486 89.2386 405.395 86.6477C406.327 84.0568 406.793 81.1705 406.793 77.9886C406.793 74.7841 406.327 71.8864 405.395 69.2955C404.486 66.6818 403.099 64.6023 401.236 63.0568C399.372 61.5114 397.054 60.7386 394.281 60.7386C391.44 60.7386 389.077 61.5114 387.19 63.0568C385.327 64.6023 383.929 66.6818 382.997 69.2955C382.088 71.8864 381.634 74.7841 381.634 77.9886C381.634 81.1705 382.088 84.0568 382.997 86.6477C383.929 89.2386 385.327 91.3068 387.19 92.8523C389.077 94.375 391.44 95.1364 394.281 95.1364ZM429.778 104V51.6364H441.744V60.3636H442.29C443.244 57.3409 444.881 55.0114 447.199 53.375C449.54 51.7159 452.21 50.8864 455.21 50.8864C455.892 50.8864 456.653 50.9205 457.494 50.9886C458.358 51.0341 459.074 51.1136 459.642 51.2273V62.5795C459.119 62.3977 458.29 62.2386 457.153 62.1023C456.04 61.9432 454.96 61.8636 453.915 61.8636C451.665 61.8636 449.642 62.3523 447.847 63.3295C446.074 64.2841 444.676 65.6136 443.653 67.3182C442.631 69.0227 442.119 70.9886 442.119 73.2159V104H429.778ZM467.841 104V51.6364H479.636V60.5341H480.25C481.341 57.5341 483.148 55.1932 485.67 53.5114C488.193 51.8068 491.205 50.9545 494.705 50.9545C498.25 50.9545 501.239 51.8182 503.67 53.5455C506.125 55.25 507.852 57.5795 508.852 60.5341H509.398C510.557 57.625 512.511 55.3068 515.261 53.5795C518.034 51.8295 521.318 50.9545 525.114 50.9545C529.932 50.9545 533.864 52.4773 536.909 55.5227C539.955 58.5682 541.477 63.0114 541.477 68.8523V104H529.102V70.7614C529.102 67.5114 528.239 65.1364 526.511 63.6364C524.784 62.1136 522.67 61.3523 520.17 61.3523C517.193 61.3523 514.864 62.2841 513.182 64.1477C511.523 65.9886 510.693 68.3864 510.693 71.3409V104H498.591V70.25C498.591 67.5455 497.773 65.3864 496.136 63.7727C494.523 62.1591 492.409 61.3523 489.795 61.3523C488.023 61.3523 486.409 61.8068 484.955 62.7159C483.5 63.6023 482.341 64.8636 481.477 66.5C480.614 68.1136 480.182 70 480.182 72.1591V104H467.841ZM569.065 105.057C565.747 105.057 562.759 104.466 560.099 103.284C557.463 102.08 555.372 100.307 553.827 97.9659C552.304 95.625 551.543 92.7386 551.543 89.3068C551.543 86.3523 552.088 83.9091 553.179 81.9773C554.27 80.0455 555.759 78.5 557.645 77.3409C559.531 76.1818 561.656 75.3068 564.02 74.7159C566.406 74.1023 568.872 73.6591 571.418 73.3864C574.486 73.0682 576.974 72.7841 578.884 72.5341C580.793 72.2614 582.179 71.8523 583.043 71.3068C583.929 70.7386 584.372 69.8636 584.372 68.6818V68.4773C584.372 65.9091 583.611 63.9205 582.088 62.5114C580.565 61.1023 578.372 60.3977 575.509 60.3977C572.486 60.3977 570.088 61.0568 568.315 62.375C566.565 63.6932 565.384 65.25 564.77 67.0455L553.247 65.4091C554.156 62.2273 555.656 59.5682 557.747 57.4318C559.838 55.2727 562.395 53.6591 565.418 52.5909C568.44 51.5 571.781 50.9545 575.44 50.9545C577.963 50.9545 580.474 51.25 582.974 51.8409C585.474 52.4318 587.759 53.4091 589.827 54.7727C591.895 56.1136 593.554 57.9432 594.804 60.2614C596.077 62.5795 596.713 65.4773 596.713 68.9545V104H584.849V96.8068H584.44C583.69 98.2614 582.634 99.625 581.27 100.898C579.929 102.148 578.236 103.159 576.19 103.932C574.168 104.682 571.793 105.057 569.065 105.057ZM572.27 95.9886C574.747 95.9886 576.895 95.5 578.713 94.5227C580.531 93.5227 581.929 92.2045 582.906 90.5682C583.906 88.9318 584.406 87.1477 584.406 85.2159V79.0455C584.02 79.3636 583.361 79.6591 582.429 79.9318C581.52 80.2045 580.497 80.4432 579.361 80.6477C578.224 80.8523 577.099 81.0341 575.986 81.1932C574.872 81.3523 573.906 81.4886 573.088 81.6023C571.247 81.8523 569.599 82.2614 568.145 82.8295C566.69 83.3977 565.543 84.1932 564.702 85.2159C563.861 86.2159 563.44 87.5114 563.44 89.1023C563.44 91.375 564.27 93.0909 565.929 94.25C567.588 95.4091 569.702 95.9886 572.27 95.9886ZM621.463 73.3182V104H609.122V51.6364H620.918V60.5341H621.531C622.736 57.6023 624.656 55.2727 627.293 53.5455C629.952 51.8182 633.236 50.9545 637.145 50.9545C640.759 50.9545 643.906 51.7273 646.588 53.2727C649.293 54.8182 651.384 57.0568 652.861 59.9886C654.361 62.9205 655.099 66.4773 655.077 70.6591V104H642.736V72.5682C642.736 69.0682 641.827 66.3295 640.009 64.3523C638.213 62.375 635.724 61.3864 632.543 61.3864C630.384 61.3864 628.463 61.8636 626.781 62.8182C625.122 63.75 623.815 65.1023 622.861 66.875C621.929 68.6477 621.463 70.7955 621.463 73.3182ZM693.77 51.6364V61.1818H663.668V51.6364H693.77ZM671.099 39.0909H683.44V88.25C683.44 89.9091 683.69 91.1818 684.19 92.0682C684.713 92.9318 685.395 93.5227 686.236 93.8409C687.077 94.1591 688.009 94.3182 689.031 94.3182C689.804 94.3182 690.509 94.2614 691.145 94.1477C691.804 94.0341 692.304 93.9318 692.645 93.8409L694.724 103.489C694.065 103.716 693.122 103.966 691.895 104.239C690.69 104.511 689.213 104.67 687.463 104.716C684.372 104.807 681.588 104.341 679.111 103.318C676.634 102.273 674.668 100.659 673.213 98.4773C671.781 96.2955 671.077 93.5682 671.099 90.2955V39.0909Z" fill="#0478DA"/>
</svg>
